<?xml version="1.0" standalone="no"?><!DOCTYPE svg PUBLIC "-//W3C//DTD SVG 1.1//EN" "http://www.w3.org/Graphics/SVG/1.1/DTD/svg11.dtd"><svg t="1756716245466" class="icon" viewBox="0 0 1024 1024" version="1.1" xmlns="http://www.w3.org/2000/svg" p-id="4383" xmlns:xlink="http://www.w3.org/1999/xlink" width="200" height="200"><path d="M676.1 733.2c-4.4 3.2-8.9 6.3-13.4 9.3-127.4 82.6-298.2 46.2-380.8-81.2-30-46.3-45.3-99.8-44.3-154.7 0.1-7.9-6.1-14.4-14-14.5-7.9-0.1-14.4 6.1-14.5 14-1.1 60.6 15.8 119.7 48.9 170.8 44.2 68.1 112.2 114.9 191.6 131.8 79.4 16.9 160.6 1.9 228.7-42.2 6.8-4.4 13.5-9.1 19.9-14.1l23.2 45.3c1.2-37.2 15.2-86 30.1-121.9-34.7 17.5-82.4 34.8-119.4 38.7l44 18.7zM581 215.3c-72.7-16.7-147.8-6.5-212.9 28.9l-15.7-48.3c-7.1 36.5-28.7 82.5-49.1 115.5 37.1-11.7 86.9-21.2 124.1-19.2l-40.6-25.6c125.2-64.8 279.1-25.1 357 95 24.2 37.3 38.7 78.5 43 122.4 0.8 7.8 7.8 13.6 15.6 12.8 2.3-0.2 4.5-1 6.3-2.2 4.3-2.8 7-7.9 6.4-13.4-4.7-47.8-21.2-94.6-47.5-135.1-43-66.5-109.3-113-186.6-130.8z" fill="currentColor" p-id="4384"></path></svg>
